<svg width="26" height="26" viewBox="0 0 26 26" fill="none" xmlns="http://www.w3.org/2000/svg">
<path d="M23.1667 7.04183C22.9342 6.286 22.1453 5.85155 21.3803 6.05206C18.5979 6.78139 16.1709 7.3125 13 7.3125C9.82164 7.3125 7.39065 6.77889 4.60005 6.04692C3.8449 5.84884 3.0656 6.27528 2.8319 7.02018C2.60798 7.73395 2.9605 8.50321 3.65744 8.77503C4.92484 9.26934 6.20431 9.70456 7.50334 10.1461C8.89505 10.6191 9.71825 12.0404 9.45367 13.4863L7.56458 23.8099C7.42163 24.5911 7.89579 25.353 8.65979 25.5697C9.4918 25.8057 10.3551 25.311 10.572 24.4738L12.3648 17.5541C12.4398 17.2646 12.701 17.0625 13 17.0625C13.299 17.0625 13.5602 17.2646 13.6352 17.5541L15.428 24.4738C15.6449 25.311 16.5082 25.8057 17.3402 25.5697C18.1042 25.353 18.5784 24.5911 18.4354 23.8099L16.5611 13.5668C16.2901 12.0859 17.1602 10.6383 18.5867 10.157C19.8438 9.73284 21.0831 9.29449 22.3109 8.82279C23.0219 8.54964 23.3907 7.76981 23.1667 7.04183ZM13 5.6875C12.4376 5.6875 11.8877 5.52072 11.4201 5.20824C10.9524 4.89577 10.588 4.45163 10.3727 3.93201C10.1575 3.41238 10.1012 2.8406 10.2109 2.28896C10.3206 1.73733 10.5915 1.23062 10.9892 0.832916C11.3869 0.435211 11.8936 0.16437 12.4452 0.0546431C12.9968 -0.0550836 13.5686 0.00123217 14.0883 0.216469C14.6079 0.431706 15.052 0.796196 15.3645 1.26385C15.677 1.7315 15.8438 2.28131 15.8438 2.84375C15.8429 3.59771 15.5431 4.32056 15.0099 4.8537C14.4768 5.38683 13.754 5.68669 13 5.6875Z" fill="black"/>
</svg>
