<svg width="12" height="23" viewBox="0 0 12 23" fill="none" xmlns="http://www.w3.org/2000/svg">
<path d="M11.4867 0.00832018H8.62363C7.90576 -0.0330422 7.18736 0.0801568 6.51699 0.340269C5.84661 0.600381 5.23987 1.00135 4.73776 1.51608C4.23565 2.03081 3.84987 2.64731 3.60647 3.32394C3.36308 4.00056 3.26775 4.72154 3.32691 5.43817V7.94195H0.449504C0.330288 7.94195 0.215956 7.98931 0.131657 8.07361C0.0473586 8.1579 0 8.27224 0 8.39145V12.0204C0 12.1396 0.0473586 12.254 0.131657 12.3383C0.215956 12.4226 0.330288 12.4699 0.449504 12.4699H3.32691V21.6247C3.32691 21.7439 3.37427 21.8582 3.45857 21.9425C3.54287 22.0268 3.6572 22.0742 3.77642 22.0742H7.52993C7.64915 22.0742 7.76348 22.0268 7.84778 21.9425C7.93208 21.8582 7.97944 21.7439 7.97944 21.6247V12.4699H11.3436C11.4628 12.4699 11.5771 12.4226 11.6614 12.3383C11.7457 12.254 11.7931 12.1396 11.7931 12.0204V8.39289C11.7931 8.27354 11.7458 8.15906 11.6615 8.07453C11.5772 7.99 11.4629 7.94233 11.3436 7.94195H7.9823V5.8204C7.9823 4.79971 8.22567 4.28292 9.557 4.28292H11.4867C11.6059 4.28292 11.7203 4.23556 11.8046 4.15126C11.8889 4.06696 11.9362 3.95263 11.9362 3.83341V0.463552C11.937 0.404042 11.9259 0.344974 11.9037 0.289775C11.8814 0.234575 11.8484 0.184344 11.8066 0.141995C11.7648 0.0996465 11.715 0.0660232 11.6601 0.0430762C11.6052 0.0201292 11.5462 0.00831536 11.4867 0.00832018Z" fill="black"/>
</svg>
