<svg width="22" height="22" viewBox="0 0 22 22" fill="none" xmlns="http://www.w3.org/2000/svg">
<path d="M15.4779 0H5.72618C4.20844 0.00302643 2.75372 0.607291 1.6805 1.6805C0.607291 2.75372 0.00302643 4.20844 0 5.72618L0 15.4736C0.00302643 16.9913 0.607291 18.4461 1.6805 19.5193C2.75372 20.5925 4.20844 21.1967 5.72618 21.1998H15.4736C16.9913 21.1967 18.4461 20.5925 19.5193 19.5193C20.5925 18.4461 21.1967 16.9913 21.1998 15.4736V5.72618C21.1967 4.20918 20.5931 2.75511 19.5208 1.68202C18.4485 0.608925 16.9949 0.00416044 15.4779 0ZM19.4948 15.4779C19.4937 16.5429 19.0701 17.5639 18.317 18.317C17.5639 19.0701 16.5429 19.4937 15.4779 19.4948H5.72618C4.66267 19.4914 3.64381 19.0668 2.8926 18.314C2.14138 17.5612 1.71899 16.5414 1.71786 15.4779V5.72618C1.72125 4.66415 2.14465 3.64659 2.89562 2.89562C3.64659 2.14465 4.66415 1.72125 5.72618 1.71786H15.4736C16.5378 1.71785 17.5587 2.13974 18.3125 2.89108C19.0662 3.64242 19.4914 4.66193 19.4948 5.72618V15.4779Z" fill="#010A4A"/>
<path d="M16.4373 9.71C16.2713 8.60088 15.7906 7.56268 15.0521 6.71862C14.3137 5.87455 13.3486 5.26006 12.2714 4.9481C11.1942 4.63614 10.0501 4.63981 8.97491 4.95865C7.89971 5.27749 6.93856 5.89812 6.20555 6.74688C5.47254 7.59565 4.99845 8.63693 4.83954 9.74709C4.68062 10.8573 4.84356 11.9897 5.30902 13.01C5.77449 14.0303 6.52292 14.8957 7.46549 15.5034C8.40807 16.111 9.50521 16.4355 10.6267 16.4383C10.9185 16.4382 11.2099 16.4167 11.4985 16.3739C13.0363 16.1458 14.4206 15.3162 15.3468 14.0676C16.2729 12.819 16.6652 11.2536 16.4373 9.71574V9.71ZM11.1893 14.2795C10.4558 14.3881 9.70657 14.2768 9.03634 13.9596C8.36611 13.6425 7.80497 13.1337 7.42388 12.4976C7.0428 11.8616 6.85888 11.1268 6.89538 10.3862C6.93187 9.64558 7.18717 8.93244 7.62895 8.33693C8.07073 7.74142 8.67917 7.29028 9.37734 7.04055C10.0755 6.79082 10.8321 6.75371 11.5513 6.93393C12.2706 7.11415 12.9202 7.5036 13.4182 8.05303C13.9161 8.60245 14.2399 9.28719 14.3487 10.0207C14.4247 10.5083 14.4029 11.0062 14.2846 11.4854C14.1664 11.9646 13.954 12.4155 13.6598 12.8118C13.3657 13.2081 12.9957 13.542 12.5713 13.7939C12.1469 14.0459 11.678 14.211 11.1893 14.2795Z" fill="#010A4A"/>
<path d="M16.6006 4.60459C16.4278 4.43171 16.2005 4.32408 15.9572 4.30004C15.714 4.27601 15.4699 4.33706 15.2667 4.47278C15.0634 4.60851 14.9135 4.81051 14.8425 5.04438C14.7714 5.27824 14.7837 5.52951 14.8772 5.75536C14.9706 5.9812 15.1395 6.16766 15.355 6.28296C15.5705 6.39825 15.8193 6.43526 16.0591 6.38767C16.2988 6.34008 16.5146 6.21084 16.6697 6.02197C16.8249 5.83309 16.9097 5.59627 16.9098 5.35185C16.9092 5.07176 16.7981 4.80325 16.6006 4.60459Z" fill="#010A4A"/>
</svg>
