<svg width="18" height="17" viewBox="0 0 18 17" fill="none" xmlns="http://www.w3.org/2000/svg">
<path d="M0.572741 16.0394H2.85319C3.00506 16.0394 3.15071 15.9791 3.2581 15.8717C3.36548 15.7643 3.42581 15.6187 3.42581 15.4668V5.49036C3.42581 5.33849 3.36548 5.19283 3.2581 5.08544C3.15071 4.97805 3.00506 4.91772 2.85319 4.91772H0.572741C0.420873 4.91772 0.275225 4.97805 0.167838 5.08544C0.0604513 5.19283 0.00012207 5.33849 0.00012207 5.49036L0.00012207 15.4668C0.00012207 15.6187 0.0604513 15.7643 0.167838 15.8717C0.275225 15.9791 0.420873 16.0394 0.572741 16.0394Z" fill="#010A4A"/>
<path d="M0.572863 3.16944H2.85332C3.00518 3.16944 3.15083 3.10912 3.25822 3.00173C3.3656 2.89434 3.42593 2.74869 3.42593 2.59683V0.572618C3.42593 0.42075 3.3656 0.275102 3.25822 0.167716C3.15083 0.0603288 3.00518 0 2.85332 0H0.572863C0.420995 0 0.275347 0.0603288 0.16796 0.167716C0.0605734 0.275102 0.000244141 0.42075 0.000244141 0.572618L0.000244141 2.59969C0.00100101 2.75106 0.0616642 2.89597 0.168969 3.00274C0.276274 3.10951 0.42149 3.16945 0.572863 3.16944Z" fill="#010A4A"/>
<path d="M16.699 6.08142C16.3235 5.61787 15.8349 5.25891 15.2803 5.03924C14.6255 4.76127 13.9202 4.62235 13.2089 4.63126C12.4708 4.62253 11.7397 4.77506 11.0666 5.07821C10.3936 5.38135 9.79482 5.82779 9.31221 6.38634C9.10034 6.61968 8.94574 6.56814 8.94574 6.2532V5.49304C8.94574 5.34117 8.88539 5.19553 8.778 5.08814C8.67062 4.98076 8.52498 4.92043 8.37311 4.92043H6.33459C6.18273 4.92043 6.03707 4.98076 5.92968 5.08814C5.82229 5.19553 5.76196 5.34117 5.76196 5.49304V15.4695C5.76196 15.6214 5.82229 15.767 5.92968 15.8744C6.03707 15.9818 6.18273 16.0421 6.33459 16.0421H8.61647C8.76834 16.0421 8.914 15.9818 9.02139 15.8744C9.12877 15.767 9.1891 15.6214 9.1891 15.4695V11.9994C9.1431 11.0015 9.23121 10.002 9.45107 9.02754C9.61951 8.50143 9.96045 8.0475 10.4188 7.73913C10.8874 7.41514 11.4453 7.24503 12.015 7.25241C12.4368 7.24018 12.8519 7.35924 13.2032 7.59313C13.5383 7.82671 13.7893 8.16202 13.9189 8.5494C14.1125 9.43889 14.1862 10.3503 14.138 11.2593V15.4724C14.138 15.6242 14.1983 15.7699 14.3057 15.8773C14.4131 15.9846 14.5587 16.045 14.7106 16.045H16.9924C17.1443 16.045 17.29 15.9846 17.3974 15.8773C17.5047 15.7699 17.5651 15.6242 17.5651 15.4724V9.82062C17.5854 9.04874 17.522 8.27693 17.3761 7.51869C17.2551 6.99693 17.0242 6.50696 16.699 6.08142Z" fill="#010A4A"/>
</svg>
