<svg width="15" height="17" viewBox="0 0 15 17" fill="none" xmlns="http://www.w3.org/2000/svg">
<path fill-rule="evenodd" clip-rule="evenodd" d="M7.55693 0.013809C8.46095 0 9.35804 0.00689414 10.2551 0C10.3103 1.05586 10.6899 2.1324 11.4627 2.87769C12.2356 3.64371 13.326 3.99566 14.3887 4.11297V6.89406C13.395 6.85955 12.3943 6.65251 11.4904 6.22466C11.097 6.04523 10.7313 5.8175 10.3724 5.58287C10.3655 7.59794 10.3793 9.61304 10.3586 11.6212C10.3034 12.5873 9.98599 13.5466 9.42704 14.3402C8.52304 15.6652 6.95658 16.5278 5.34869 16.5554C4.3619 16.6106 3.37509 16.3415 2.53319 15.8446C1.13925 15.0234 0.159331 13.519 0.0144295 11.9042C0.000620491 11.5591 -0.00627365 11.2141 0.00751463 10.8759C0.131733 9.56472 0.780404 8.30874 1.78792 7.45302C2.93343 6.45929 4.5344 5.98312 6.03186 6.26607C6.04566 7.28742 6.00428 8.30874 6.00428 9.33009C5.32108 9.10925 4.52061 9.17136 3.92024 9.58542C3.48549 9.86837 3.15427 10.3031 2.98175 10.7931C2.83682 11.1451 2.87823 11.5315 2.88512 11.9042C3.05075 13.0359 4.14106 13.9882 5.30039 13.8847C6.07328 13.8778 6.81166 13.4292 7.21191 12.7737C7.343 12.5459 7.48793 12.3113 7.49482 12.0422C7.56385 10.8069 7.53623 9.57853 7.54314 8.34326C7.55004 5.56216 7.53623 2.78799 7.55693 0.013809Z" fill="#010A4A"/>
</svg>
