<svg width="28" height="19" viewBox="0 0 28 19" fill="none" xmlns="http://www.w3.org/2000/svg">
<path d="M26.4729 2.9605C26.3183 2.39007 26.0171 1.87004 25.5992 1.45214C25.1812 1.03423 24.6612 0.733002 24.0908 0.578403C21.975 0.00578443 13.5145 0.00578431 13.5145 0.00578431C9.98081 -0.03614 6.44805 0.14987 2.93827 0.562656C2.36932 0.724998 1.8516 1.03076 1.43474 1.45062C1.01788 1.87049 0.715856 2.39039 0.557609 2.9605C0.173847 5.10583 -0.0125558 7.2818 0.000737088 9.46115C-0.0132973 11.6405 0.173111 13.8166 0.557609 15.9618C0.712121 16.5324 1.0133 17.0527 1.4312 17.4708C1.8491 17.889 2.36917 18.1905 2.9397 18.3453C6.44841 18.7718 9.98172 18.9631 13.516 18.9179C17.0497 18.9599 20.5824 18.7739 24.0922 18.3611C24.6626 18.2063 25.1825 17.9051 25.6004 17.4872C26.0183 17.0693 26.3196 16.5493 26.4743 15.979C26.8573 13.835 27.0432 11.6605 27.0298 9.48262C27.0551 7.2957 26.8687 5.11146 26.4729 2.9605ZM10.8218 13.5139V5.41273L17.8564 9.46115L10.8218 13.5139Z" fill="#010A4A"/>
</svg>
